<svg width="204" height="82" viewBox="0 0 204 82" fill="none" xmlns="http://www.w3.org/2000/svg">
<path d="M3 12H18V16H3V12Z" fill="#D400B3"/>
<path d="M14 15H18V30H14V15Z" fill="#D400B3"/>
<path d="M3.11608 43.616H7.18408L9.09208 51.338L11.0001 43.616H15.2481L11.3781 56H6.78808L3.11608 43.616ZM20.2418 56.144C19.2338 56.144 18.4478 55.82 17.8838 55.172C17.3198 54.524 17.0378 53.642 17.0378 52.526V46.982H20.8538V52.364C20.8538 52.64 20.9258 52.856 21.0698 53.012C21.2258 53.156 21.4238 53.228 21.6638 53.228C21.9038 53.228 22.1498 53.156 22.4018 53.012L22.5998 55.514C22.3358 55.718 21.9878 55.874 21.5558 55.982C21.1358 56.09 20.6978 56.144 20.2418 56.144ZM18.9458 45.632C18.3818 45.632 17.9018 45.458 17.5058 45.11C17.1218 44.75 16.9298 44.312 16.9298 43.796C16.9298 43.28 17.1338 42.848 17.5418 42.5C17.9498 42.152 18.4178 41.978 18.9458 41.978C19.4978 41.978 19.9718 42.158 20.3678 42.518C20.7758 42.878 20.9798 43.304 20.9798 43.796C20.9798 44.324 20.7758 44.762 20.3678 45.11C19.9598 45.458 19.4858 45.632 18.9458 45.632ZM29.31 56.144C28.314 56.144 27.426 55.946 26.646 55.55C25.878 55.142 25.278 54.59 24.846 53.894C24.414 53.186 24.198 52.388 24.198 51.5C24.198 50.588 24.42 49.778 24.864 49.07C25.308 48.362 25.908 47.816 26.664 47.432C27.42 47.048 28.26 46.856 29.184 46.856C30.072 46.856 30.828 47.054 31.452 47.45C32.088 47.834 32.562 48.362 32.874 49.034C33.186 49.694 33.342 50.438 33.342 51.266C33.342 51.482 33.33 51.638 33.306 51.734L27.906 52.436C28.05 52.856 28.284 53.162 28.608 53.354C28.932 53.534 29.358 53.624 29.886 53.624C30.702 53.624 31.584 53.414 32.532 52.994L32.982 55.406C31.866 55.898 30.642 56.144 29.31 56.144ZM30.552 50.168C30.36 49.412 29.904 49.034 29.184 49.034C28.752 49.034 28.41 49.196 28.158 49.52C27.906 49.844 27.774 50.264 27.762 50.78L30.552 50.168ZM35.11 46.982H38.782L39.808 52.832L41.05 46.982H44.146L45.406 52.976L46.432 46.982H49.384L47.512 56H43.21L42.202 51.23L41.248 56H37.09L35.11 46.982ZM56.0016 47.108H59.6196V48.944C60.0276 48.236 60.4896 47.714 61.0056 47.378C61.5336 47.03 62.1576 46.856 62.8776 46.856C63.5856 46.856 64.1976 47.036 64.7136 47.396C65.2416 47.744 65.6376 48.218 65.9016 48.818C66.6696 47.51 67.7856 46.856 69.2496 46.856C69.9456 46.856 70.5516 47.042 71.0676 47.414C71.5956 47.786 72.0036 48.326 72.2916 49.034C72.5796 49.73 72.7236 50.552 72.7236 51.5V56H68.9256V51.5C68.9256 50.888 68.8176 50.426 68.6016 50.114C68.3976 49.802 68.1096 49.646 67.7376 49.646C67.3296 49.646 66.9756 49.82 66.6756 50.168C66.3876 50.516 66.2436 50.936 66.2436 51.428V56H62.4816V51.5C62.4816 50.888 62.3736 50.426 62.1576 50.114C61.9536 49.802 61.6596 49.646 61.2756 49.646C60.8676 49.646 60.5196 49.82 60.2316 50.168C59.9436 50.516 59.7996 50.936 59.7996 51.428V56H56.0016V47.108ZM79.4542 56.144C78.6742 56.144 77.9422 55.94 77.2582 55.532C76.5862 55.112 76.0462 54.548 75.6382 53.84C75.2302 53.12 75.0262 52.322 75.0262 51.446C75.0262 50.582 75.2302 49.802 75.6382 49.106C76.0462 48.398 76.5922 47.846 77.2762 47.45C77.9602 47.054 78.6862 46.856 79.4542 46.856C80.0782 46.856 80.6542 47.03 81.1822 47.378C81.7222 47.726 82.1302 48.248 82.4062 48.944V46.856H86.1862V56H82.4062V54.326C81.8062 55.538 80.8222 56.144 79.4542 56.144ZM80.6242 53.3C81.1042 53.3 81.5122 53.132 81.8482 52.796C82.1962 52.448 82.3822 52.04 82.4062 51.572V51.428C82.3822 50.948 82.1902 50.54 81.8302 50.204C81.4822 49.868 81.0802 49.7 80.6242 49.7C80.1202 49.7 79.6882 49.88 79.3282 50.24C78.9802 50.588 78.8062 51.008 78.8062 51.5C78.8062 52.004 78.9862 52.43 79.3462 52.778C79.7062 53.126 80.1322 53.3 80.6242 53.3ZM89.0094 47.108H92.8074V48.944C93.0834 48.236 93.4554 47.714 93.9234 47.378C94.4034 47.03 94.9614 46.856 95.5974 46.856L96.1194 49.79C94.9794 49.79 94.1394 49.916 93.5994 50.168C93.0714 50.408 92.8074 50.792 92.8074 51.32V56H89.0094V47.108ZM107.163 56.144C106.359 56.144 105.711 56.042 105.219 55.838C104.739 55.622 104.343 55.268 104.031 54.776C103.719 54.284 103.443 53.582 103.203 52.67L102.141 53.516V56H98.3247L98.3427 44.138L102.159 43.58L102.141 49.736L106.767 45.956L108.837 48.782L105.939 50.798C106.083 51.71 106.287 52.346 106.551 52.706C106.827 53.066 107.229 53.246 107.757 53.246C107.973 53.246 108.231 53.21 108.531 53.138L108.171 56.09C107.811 56.126 107.475 56.144 107.163 56.144ZM115.5 56.144C114.504 56.144 113.616 55.946 112.836 55.55C112.068 55.142 111.468 54.59 111.036 53.894C110.604 53.186 110.388 52.388 110.388 51.5C110.388 50.588 110.61 49.778 111.054 49.07C111.498 48.362 112.098 47.816 112.854 47.432C113.61 47.048 114.45 46.856 115.374 46.856C116.262 46.856 117.018 47.054 117.642 47.45C118.278 47.834 118.752 48.362 119.064 49.034C119.376 49.694 119.532 50.438 119.532 51.266C119.532 51.482 119.52 51.638 119.496 51.734L114.096 52.436C114.24 52.856 114.474 53.162 114.798 53.354C115.122 53.534 115.548 53.624 116.076 53.624C116.892 53.624 117.774 53.414 118.722 52.994L119.172 55.406C118.056 55.898 116.832 56.144 115.5 56.144ZM116.742 50.168C116.55 49.412 116.094 49.034 115.374 49.034C114.942 49.034 114.6 49.196 114.348 49.52C114.096 49.844 113.964 50.264 113.952 50.78L116.742 50.168ZM125.781 56.144C124.725 56.144 123.903 55.844 123.315 55.244C122.727 54.632 122.433 53.792 122.433 52.724V49.214H121.281V46.982H122.703L124.377 43.58H126.195V46.982H128.283V49.214H126.195V52.274C126.195 52.574 126.291 52.808 126.483 52.976C126.675 53.144 126.945 53.228 127.293 53.228C127.617 53.228 127.911 53.156 128.175 53.012L128.319 55.532C128.019 55.712 127.629 55.862 127.149 55.982C126.681 56.09 126.225 56.144 125.781 56.144ZM130.662 47.108H134.46V48.674C135.036 47.462 136.014 46.856 137.394 46.856C138.198 46.856 138.936 47.06 139.608 47.468C140.292 47.864 140.826 48.416 141.21 49.124C141.606 49.832 141.804 50.624 141.804 51.5C141.804 52.376 141.6 53.168 141.192 53.876C140.796 54.584 140.256 55.142 139.572 55.55C138.9 55.946 138.18 56.144 137.412 56.144C136.044 56.144 135.06 55.538 134.46 54.326V58.34L130.662 59.06V47.108ZM136.26 53.3C136.752 53.3 137.172 53.12 137.52 52.76C137.868 52.4 138.042 51.98 138.042 51.5C138.042 50.996 137.862 50.57 137.502 50.222C137.154 49.874 136.74 49.7 136.26 49.7C135.768 49.7 135.348 49.874 135 50.222C134.652 50.558 134.478 50.96 134.478 51.428V51.5C134.478 52.004 134.652 52.43 135 52.778C135.36 53.126 135.78 53.3 136.26 53.3ZM147.345 56.144C146.325 56.144 145.533 55.826 144.969 55.19C144.417 54.542 144.141 53.66 144.141 52.544V44.138L147.939 43.58V52.274C147.939 52.61 148.017 52.856 148.173 53.012C148.341 53.156 148.629 53.228 149.037 53.228C149.337 53.228 149.631 53.156 149.919 53.012L150.045 55.532C149.241 55.94 148.341 56.144 147.345 56.144ZM155.958 56.144C155.178 56.144 154.446 55.94 153.762 55.532C153.09 55.112 152.55 54.548 152.142 53.84C151.734 53.12 151.53 52.322 151.53 51.446C151.53 50.582 151.734 49.802 152.142 49.106C152.55 48.398 153.096 47.846 153.78 47.45C154.464 47.054 155.19 46.856 155.958 46.856C156.582 46.856 157.158 47.03 157.686 47.378C158.226 47.726 158.634 48.248 158.91 48.944V46.856H162.69V56H158.91V54.326C158.31 55.538 157.326 56.144 155.958 56.144ZM157.128 53.3C157.608 53.3 158.016 53.132 158.352 52.796C158.7 52.448 158.886 52.04 158.91 51.572V51.428C158.886 50.948 158.694 50.54 158.334 50.204C157.986 49.868 157.584 49.7 157.128 49.7C156.624 49.7 156.192 49.88 155.832 50.24C155.484 50.588 155.31 51.008 155.31 51.5C155.31 52.004 155.49 52.43 155.85 52.778C156.21 53.126 156.636 53.3 157.128 53.3ZM169.959 56.144C168.999 56.144 168.147 55.952 167.403 55.568C166.671 55.172 166.095 54.62 165.675 53.912C165.267 53.204 165.063 52.4 165.063 51.5C165.063 50.636 165.279 49.85 165.711 49.142C166.143 48.434 166.731 47.876 167.475 47.468C168.219 47.06 169.047 46.856 169.959 46.856C171.123 46.856 172.041 47.096 172.713 47.576L172.371 49.97C171.687 49.766 171.123 49.664 170.679 49.664C170.103 49.664 169.647 49.832 169.311 50.168C168.975 50.492 168.807 50.936 168.807 51.5C168.807 52.064 168.975 52.514 169.311 52.85C169.647 53.186 170.091 53.354 170.643 53.354C171.123 53.354 171.687 53.252 172.335 53.048L172.677 55.568C172.269 55.772 171.855 55.916 171.435 56C171.015 56.096 170.523 56.144 169.959 56.144ZM179.56 56.144C178.564 56.144 177.676 55.946 176.896 55.55C176.128 55.142 175.528 54.59 175.096 53.894C174.664 53.186 174.448 52.388 174.448 51.5C174.448 50.588 174.67 49.778 175.114 49.07C175.558 48.362 176.158 47.816 176.914 47.432C177.67 47.048 178.51 46.856 179.434 46.856C180.322 46.856 181.078 47.054 181.702 47.45C182.338 47.834 182.812 48.362 183.124 49.034C183.436 49.694 183.592 50.438 183.592 51.266C183.592 51.482 183.58 51.638 183.556 51.734L178.156 52.436C178.3 52.856 178.534 53.162 178.858 53.354C179.182 53.534 179.608 53.624 180.136 53.624C180.952 53.624 181.834 53.414 182.782 52.994L183.232 55.406C182.116 55.898 180.892 56.144 179.56 56.144ZM180.802 50.168C180.61 49.412 180.154 49.034 179.434 49.034C179.002 49.034 178.66 49.196 178.408 49.52C178.156 49.844 178.024 50.264 178.012 50.78L180.802 50.168Z" fill="#D400B3"/>
</svg>
